# xmcd CD database file
#
# Track frame offsets:
#	150
#	17887
#	31587
#	51957
#	69925
#
# Disc length: 1209 seconds
#
# Revision: 0
# Processed by: cddbd v1.5.1PL2 Copyright (c) Steve Scherf et al.
# Submitted via: CDex 1.51
#
DISCID=3504b705
DTITLE=松尾清憲 - Brain Park
DYEAR=2000
DGENRE=JPop
TTITLE0=これは一月に満たぬ愛
TTITLE1=エデンの南
TTITLE2=グッバイ・ガール
TTITLE3=憂鬱という名の雨
TTITLE4=愚かになって キスしてしまえよ
EXTD=YEAR: 2000
EXTT0=
EXTT1=
EXTT2=
EXTT3=
EXTT4=
PLAYORDER=
